<svg width="49" height="49" viewBox="0 0 49 49" fill="none" xmlns="http://www.w3.org/2000/svg">
<g clip-path="url(#clip0_4590_1071)">
<path d="M14.3525 21.2474H6.72755C6.48067 21.2474 6.28317 21.4381 6.28317 21.6765V25.1362V25.1498V25.1634V28.6231C6.28317 28.8615 6.48067 29.0522 6.72755 29.0522H14.3525C14.5994 29.0522 14.7969 28.8615 14.7969 28.6231V21.6697C14.7969 21.4313 14.5994 21.2406 14.3525 21.2406V21.2474ZM7.17898 22.1123H9.97928V24.7275H7.17898V22.1123ZM9.97928 28.2009H7.17898V25.5857H9.97928V28.2009ZM13.9082 28.2009H10.8751V25.5857H13.9082V28.2009ZM13.9082 24.7275H10.8751V22.1123H13.9082V24.7275Z" fill="url(#paint0_linear_4590_1071)"/>
<path d="M13.4567 13.5516V15.479C13.4567 15.7173 13.6542 15.908 13.9011 15.908H17.5972C17.8441 15.908 18.0416 15.7173 18.0416 15.479V13.5516C18.0416 13.3133 17.8441 13.1226 17.5972 13.1226H13.9011C13.6542 13.1226 13.4567 13.3133 13.4567 13.5516ZM14.3525 13.9807H17.1528V15.0431H14.3525V13.9807Z" fill="url(#paint1_linear_4590_1071)"/>
<path d="M43.2652 35.2089C42.9125 35.2089 42.6303 35.4813 42.6303 35.8218V38.4915H18.4082V32.546C18.4082 31.9807 18.8878 31.5176 19.4733 31.5176H35.619C35.9717 31.5176 36.2539 31.2452 36.2539 30.9047C36.2539 30.5641 35.9717 30.2917 35.619 30.2917H20.3338L22.2242 24.319C22.3935 23.7264 22.9507 23.3178 23.5855 23.3178H33.9191C34.2718 23.3178 34.5539 23.0454 34.5539 22.7049C34.5539 22.3644 34.2718 22.0919 33.9191 22.0919H28.0505V17.6175H30.0608C30.1948 17.6175 30.3288 17.5562 30.4134 17.454C30.4981 17.3519 30.5263 17.2157 30.4981 17.0863L28.0364 7.3269C27.987 7.13621 27.8106 7 27.599 7H3.90587C3.70132 7 3.51792 7.13621 3.46855 7.3269L1.01388 17.0726C0.978613 17.202 1.01388 17.3383 1.09853 17.4404C1.18317 17.5426 1.31013 17.6039 1.45121 17.6039H3.45444V34.3712C3.45444 34.6095 3.65194 34.8002 3.89882 34.8002H17.1314V39.0976C17.1314 39.4381 17.4136 39.7106 17.7663 39.7106H18.8314V41.7196C18.8314 42.4211 19.4239 42.9932 20.1504 42.9932H23.0353C23.7619 42.9932 24.3544 42.4211 24.3544 41.7196V39.7106H36.6771V41.7196C36.6771 42.4211 37.2696 42.9932 37.9961 42.9932H40.881C41.6076 42.9932 42.2001 42.4211 42.2001 41.7196V39.7106H43.2652C43.6179 39.7106 43.9 39.4381 43.9 39.0976V35.815C43.9 35.4745 43.6179 35.202 43.2652 35.202V35.2089ZM2.0155 16.7457L4.25855 7.86493H27.2464L29.4824 16.7457H20.2068V12.3053C20.2068 12.1555 20.1222 12.0125 19.9882 11.9376L15.9746 9.6084C15.8336 9.52667 15.6572 9.52667 15.5162 9.6084L11.5026 11.9376C11.3686 12.0125 11.284 12.1555 11.284 12.3053V16.7457H2.0155ZM19.3181 12.5505V16.7049H12.1868V12.5505L15.756 10.4801L19.3251 12.5505H19.3181ZM17.1314 32.546V33.9489H4.35025V17.6107H27.1547V22.0851H23.5855C22.3794 22.0851 21.3143 22.8683 20.9968 23.9784L18.9795 30.3394C17.9214 30.5573 17.1314 31.4631 17.1314 32.546ZM23.0353 41.7741L20.101 41.7333V39.7242H23.0636L23.0283 41.7741H23.0353ZM40.881 41.7741L37.9467 41.7333V39.7242H40.9093L40.874 41.7741H40.881Z" fill="url(#paint2_linear_4590_1071)"/>
<path d="M39.0121 33.9761C39.3647 33.9761 39.6469 33.7037 39.6469 33.3632C39.6469 33.0227 39.3647 32.7502 39.0121 32.7502C37.7212 32.7502 36.6773 33.765 36.6773 35.0045C36.6773 36.244 37.7283 37.2588 39.0121 37.2588C40.2958 37.2588 41.3468 36.244 41.3468 35.0045C41.3468 34.664 41.0647 34.3916 40.712 34.3916C40.3593 34.3916 40.0772 34.664 40.0772 35.0045C40.0772 35.5698 39.5975 36.0329 39.0121 36.0329C38.4266 36.0329 37.947 35.5698 37.947 35.0045C37.947 34.4392 38.4266 33.9761 39.0121 33.9761Z" fill="url(#paint3_linear_4590_1071)"/>
<path d="M19.6851 35.0045C19.6851 36.2508 20.7361 37.2588 22.0198 37.2588C23.3036 37.2588 24.3546 36.244 24.3546 35.0045C24.3546 33.765 23.3036 32.7502 22.0198 32.7502C20.7361 32.7502 19.6851 33.765 19.6851 35.0045ZM23.0849 35.0045C23.0849 35.5698 22.6053 36.0329 22.0198 36.0329C21.4344 36.0329 20.9547 35.5698 20.9547 35.0045C20.9547 34.4392 21.4344 33.9761 22.0198 33.9761C22.6053 33.9761 23.0849 34.4392 23.0849 35.0045Z" fill="url(#paint4_linear_4590_1071)"/>
<path d="M27.1196 32.7435C26.7669 32.7435 26.4848 33.0159 26.4848 33.3565V35.815C26.4848 36.1556 26.7669 36.428 27.1196 36.428H33.9193C34.272 36.428 34.5542 36.1556 34.5542 35.815V33.3565C34.5542 33.0159 34.272 32.7435 33.9193 32.7435H27.1196ZM33.2775 35.2021H27.7545V33.9694H33.2775V35.2021Z" fill="url(#paint5_linear_4590_1071)"/>
<path d="M27.9661 24.5437C27.6134 24.5437 27.3312 24.8161 27.3312 25.1566C27.3312 25.4972 27.6134 25.7696 27.9661 25.7696H32.2124C32.565 25.7696 32.8472 25.4972 32.8472 25.1566C32.8472 24.8161 32.565 24.5437 32.2124 24.5437H27.9661Z" fill="url(#paint6_linear_4590_1071)"/>
<path d="M48.3652 22.0783C45.7412 22.0783 42.9198 19.0341 42.8916 19.0068C42.6517 18.7412 42.1791 18.7412 41.9393 19.0068C41.9111 19.0341 39.0967 22.0783 36.4657 22.0783C36.113 22.0783 35.8309 22.3508 35.8309 22.6913C35.8309 31.7492 41.9534 33.8536 42.2144 33.9421C42.2779 33.9626 42.3484 33.9762 42.419 33.9762C42.4895 33.9762 42.56 33.9626 42.6235 33.9421C42.8845 33.8604 49.0071 31.7492 49.0071 22.6913C49.0071 22.3508 48.7249 22.0783 48.3722 22.0783H48.3652ZM42.419 32.6958C41.4315 32.2804 37.3333 30.1351 37.1146 23.2633C39.3859 22.9637 41.4949 21.1794 42.419 20.3008C43.3359 21.1794 45.452 22.9637 47.7233 23.2633C47.5046 30.1419 43.4065 32.2804 42.419 32.6958Z" fill="url(#paint7_linear_4590_1071)"/>
<path d="M41.1634 25.5449C40.9165 25.3065 40.5145 25.3065 40.2605 25.5449C40.0137 25.7832 40.0137 26.1714 40.2605 26.4166L41.9605 28.0579C42.0804 28.1737 42.2426 28.235 42.4119 28.235C42.426 28.235 42.4401 28.235 42.4542 28.235C42.6376 28.2214 42.8069 28.1328 42.9198 27.9898L45.4661 24.7072C45.6777 24.4348 45.6213 24.0466 45.3392 23.8491C45.057 23.6448 44.655 23.6992 44.4433 23.9717L42.3343 26.689L41.1563 25.5517L41.1634 25.5449Z" fill="url(#paint8_linear_4590_1071)"/>
</g>
<defs>
<linearGradient id="paint0_linear_4590_1071" x1="6.27612" y1="25.1566" x2="14.7969" y2="25.1566" gradientUnits="userSpaceOnUse">
<stop stop-color="#5855E4"/>
<stop offset="1" stop-color="#C11884"/>
</linearGradient>
<linearGradient id="paint1_linear_4590_1071" x1="13.4567" y1="14.5187" x2="18.0486" y2="14.5187" gradientUnits="userSpaceOnUse">
<stop stop-color="#5855E4"/>
<stop offset="1" stop-color="#C11884"/>
</linearGradient>
<linearGradient id="paint2_linear_4590_1071" x1="0.999774" y1="25" x2="43.9" y2="25" gradientUnits="userSpaceOnUse">
<stop stop-color="#5855E4"/>
<stop offset="1" stop-color="#C11884"/>
</linearGradient>
<linearGradient id="paint3_linear_4590_1071" x1="36.6773" y1="35.0045" x2="41.3539" y2="35.0045" gradientUnits="userSpaceOnUse">
<stop stop-color="#5855E4"/>
<stop offset="1" stop-color="#C11884"/>
</linearGradient>
<linearGradient id="paint4_linear_4590_1071" x1="19.6851" y1="35.0045" x2="24.3546" y2="35.0045" gradientUnits="userSpaceOnUse">
<stop stop-color="#5855E4"/>
<stop offset="1" stop-color="#C11884"/>
</linearGradient>
<linearGradient id="paint5_linear_4590_1071" x1="26.4777" y1="34.5892" x2="34.5542" y2="34.5892" gradientUnits="userSpaceOnUse">
<stop stop-color="#5855E4"/>
<stop offset="1" stop-color="#C11884"/>
</linearGradient>
<linearGradient id="paint6_linear_4590_1071" x1="27.3312" y1="7.00001" x2="32.8542" y2="7.00001" gradientUnits="userSpaceOnUse">
<stop stop-color="#5855E4"/>
<stop offset="1" stop-color="#C11884"/>
</linearGradient>
<linearGradient id="paint7_linear_4590_1071" x1="42.419" y1="38.2187" x2="48.471" y2="20.8207" gradientUnits="userSpaceOnUse">
<stop offset="0.0343909" stop-color="#C11884"/>
<stop offset="1" stop-color="#FF9A26"/>
</linearGradient>
<linearGradient id="paint8_linear_4590_1071" x1="42.8348" y1="29.4963" x2="44.1842" y2="24.0313" gradientUnits="userSpaceOnUse">
<stop offset="0.0343909" stop-color="#C11884"/>
<stop offset="1" stop-color="#FF9A26"/>
</linearGradient>
<clipPath id="clip0_4590_1071">
<rect width="48" height="36" fill="white" transform="translate(1 7)"/>
</clipPath>
</defs>
</svg>
