<svg width="49" height="49" viewBox="0 0 49 49" fill="none" xmlns="http://www.w3.org/2000/svg">
<g clip-path="url(#clip0_4534_4974)">
<path d="M35.091 22.8414H25.8598C25.4841 22.8414 25.171 22.5341 25.171 22.1454C25.171 21.7568 25.4752 21.4495 25.8598 21.4495H35.091C35.4667 21.4495 35.7798 21.7568 35.7798 22.1454C35.7798 22.5341 35.4757 22.8414 35.091 22.8414Z" fill="url(#paint0_linear_4534_4974)"/>
<path d="M35.091 34.9623H31.7456C31.3699 34.9623 31.0568 34.6549 31.0568 34.2663C31.0568 33.8776 31.361 33.5703 31.7456 33.5703H35.091C35.4667 33.5703 35.7798 33.8776 35.7798 34.2663C35.7798 34.6549 35.4757 34.9623 35.091 34.9623Z" fill="url(#paint1_linear_4534_4974)"/>
<path d="M35.0105 25.8874H27.1121C26.7364 25.8874 26.4233 25.5801 26.4233 25.1915C26.4233 24.8028 26.7274 24.4955 27.1121 24.4955H35.0105C35.3862 24.4955 35.6993 24.8028 35.6993 25.1915C35.6993 25.5801 35.3952 25.8874 35.0105 25.8874Z" fill="url(#paint2_linear_4534_4974)"/>
<path d="M35.091 28.9064H25.8598C25.4841 28.9064 25.171 28.599 25.171 28.2104C25.171 27.8217 25.4752 27.5144 25.8598 27.5144H35.091C35.4667 27.5144 35.7798 27.8217 35.7798 28.2104C35.7798 28.599 35.4757 28.9064 35.091 28.9064Z" fill="url(#paint3_linear_4534_4974)"/>
<path d="M39 16.9302C39 16.7042 38.8927 16.5053 38.7227 16.3788L30.6364 8.20789C30.5917 8.1627 30.547 8.12655 30.5022 8.09943C30.4843 8.09943 30.4754 8.08135 30.4575 8.07231C30.4038 8.0452 30.3502 8.02712 30.2965 8.00904C30.2965 8.00904 30.207 7.99097 30.1713 7.99097H14.3207C13.9361 7.99097 13.6319 8.29828 13.6319 8.68694V15.7099C13.8913 15.6828 14.1507 15.6738 14.4191 15.6738C14.6159 15.6738 14.8127 15.6738 15.0095 15.7009V9.39195H29.4646V16.9302C29.4646 17.3098 29.7687 17.6261 30.1534 17.6261H37.6135V39.6081H15.0095V33.2991C14.8127 33.3172 14.6159 33.3262 14.4191 33.3262C14.1507 33.3262 13.8913 33.3081 13.6319 33.2901V40.3131C13.6319 40.7017 13.9361 41.009 14.3207 41.009H38.3023C38.6869 41.009 38.991 40.7017 38.991 40.3131V17.0205C38.991 17.0205 39 16.9573 39 16.9302ZM30.8421 16.2342V10.3681L36.6385 16.2251H30.8421V16.2342Z" fill="url(#paint4_linear_4534_4974)"/>
<path d="M13.4301 27.7886C13.4118 27.8113 13.3781 27.8364 13.3162 27.8459H13.3161H13.316H13.3159H13.3158H13.3157H13.3156H13.3155H13.3154H13.3153H13.3152H13.3151H13.315H13.3149H13.3148H13.3147H13.3146H13.3144H13.3143H13.3142H13.3141H13.314H13.3139H13.3138H13.3137H13.3136H13.3135H13.3134H13.3133H13.3132H13.3131H13.313H13.3129H13.3128H13.3127H13.3126H13.3125H13.3124H13.3122H13.3121H13.312H13.3119H13.3118H13.3117H13.3116H13.3115H13.3114H13.3113H13.3112H13.3111H13.311H13.3109H13.3108H13.3107H13.3106H13.3105H13.3104H13.3103H13.3101H13.31H13.3099H13.3098H13.3097H13.3096H13.3095H13.3094H13.3093H13.3092H13.3091H13.309H13.3089H13.3088H13.3087H13.3086H13.3085H13.3084H13.3083H13.3082H13.3081H13.3079H13.3078H13.3077H13.3076H13.3075H13.3074H13.3073H13.3072H13.3071H13.307H13.3069H13.3068H13.3067H13.3066H13.3065H13.3064H13.3063H13.3062H13.3061H13.306H13.3059H13.3057H13.3056H13.3055H13.3054H13.3053H13.3052H13.3051H13.305H13.3049H13.3048H13.3047H13.3046H13.3045H13.3044H13.3043H13.3042H13.3041H13.304H13.3039H13.3038H13.3037H13.3035H13.3034H13.3033H13.3032H13.3031H13.303H13.3029H13.3028H13.3027H13.3026H13.3025H13.3024H13.3023H13.3022H13.3021H13.302H13.3019H13.3018H13.3017H13.3016H13.3014H13.3013H13.3012H13.3011H13.301H13.3009H13.3008H13.3007H13.3006H13.3005H13.3004H13.3003H13.3002H13.3001H13.3H13.2999H13.2998H13.2997H13.2996H13.2995H13.2994H13.2992H13.2991H13.299H13.2989H13.2988H13.2987H13.2986H13.2985H13.2984H13.2983H13.2982H13.2981H13.298H13.2979H13.2978H13.2977H13.2976H13.2975H13.2974H13.2973H13.2972H13.297H13.2969H13.2968H13.2967H13.2966H13.2965H13.2964H13.2963H13.2962H13.2961H13.296H13.2959H13.2958H13.2957H13.2956H13.2955H13.2954H13.2953H13.2952H13.2951H13.295H13.2948H13.2947H13.2946H13.2945H13.2944H13.2943H13.2942H13.2941H13.294H13.2939H13.2938H13.2937H13.2936H13.2935H13.2934H13.2933H13.2932H13.2931H13.293H13.2929H13.2927H13.2926H13.2925H13.2924H13.2923H13.2922H13.2921H13.292H13.2438C13.219 27.838 13.1951 27.8249 13.1736 27.8066L10.1261 25.1064L10.1257 25.1061C10.0441 25.034 10.0416 24.9083 10.1047 24.8377L10.1047 24.8378L10.1099 24.8318C10.1797 24.7511 10.2953 24.7507 10.3609 24.8106L10.3609 24.8106L10.3666 24.8157L12.8891 27.0482L13.2738 27.3887L13.6037 26.9949L18.443 21.2192L18.4435 21.2186C18.5061 21.1436 18.626 21.133 18.7014 21.1972C18.777 21.2617 18.7899 21.3914 18.7227 21.4722C18.7226 21.4723 18.7225 21.4724 18.7225 21.4725L13.4365 27.7808L13.4365 27.7807L13.4301 27.7886Z" fill="url(#paint5_linear_4534_4974)" stroke="url(#paint6_linear_4534_4974)"/>
<path d="M13.624 33.4791L13.6225 33.479C9.00173 33.0685 5.50894 29.213 5.50894 24.5045C5.50894 19.7952 8.99346 15.932 13.6124 15.5212C14.136 15.4771 14.5767 15.4615 15.0263 15.5028L15.0263 15.503L15.038 15.5038C19.6731 15.82 23.3382 19.7645 23.3382 24.4955C23.3382 29.2262 19.6823 33.1709 15.0203 33.4872L15.0203 33.487L15.0085 33.4881C14.8292 33.5046 14.6211 33.5132 14.4191 33.5132C14.1622 33.5132 13.9006 33.5045 13.624 33.4791ZM14.4191 15.8698C14.1737 15.8698 13.9246 15.8793 13.6464 15.9082C9.21687 16.304 5.87753 20.0039 5.87753 24.4955C5.87753 28.9875 9.21753 32.6877 13.6477 33.0829C14.1236 33.1299 14.5473 33.1406 14.9857 33.1016C19.4725 32.8008 22.9607 29.0183 22.9607 24.4955C22.9607 19.9724 19.4724 16.1997 15.0047 15.8894C14.7875 15.8698 14.5999 15.8698 14.426 15.8698L14.4191 15.8698Z" fill="url(#paint7_linear_4534_4974)" stroke="url(#paint8_linear_4534_4974)"/>
</g>
<defs>
<linearGradient id="paint0_linear_4534_4974" x1="25.171" y1="22.1454" x2="35.7798" y2="22.1454" gradientUnits="userSpaceOnUse">
<stop stop-color="#5855E4"/>
<stop offset="1" stop-color="#C11884"/>
</linearGradient>
<linearGradient id="paint1_linear_4534_4974" x1="32.4249" y1="35.258" x2="35.6729" y2="30.9337" gradientUnits="userSpaceOnUse">
<stop offset="0.0630164" stop-color="#5855E4"/>
<stop offset="0.978543" stop-color="#C11884"/>
</linearGradient>
<linearGradient id="paint2_linear_4534_4974" x1="26.4233" y1="25.2005" x2="35.6993" y2="25.2005" gradientUnits="userSpaceOnUse">
<stop stop-color="#5855E4"/>
<stop offset="1" stop-color="#C11884"/>
</linearGradient>
<linearGradient id="paint3_linear_4534_4974" x1="28.2441" y1="29.2021" x2="30.2784" y2="23.1185" gradientUnits="userSpaceOnUse">
<stop offset="0.0630164" stop-color="#5855E4"/>
<stop offset="0.978543" stop-color="#C11884"/>
</linearGradient>
<linearGradient id="paint4_linear_4534_4974" x1="13.6319" y1="24.4955" x2="39" y2="24.4955" gradientUnits="userSpaceOnUse">
<stop stop-color="#5855E4"/>
<stop offset="1" stop-color="#C11884"/>
</linearGradient>
<linearGradient id="paint5_linear_4534_4974" x1="9.56194" y1="24.5045" x2="19.2762" y2="24.5045" gradientUnits="userSpaceOnUse">
<stop stop-color="#5855E4"/>
<stop offset="1" stop-color="#C11884"/>
</linearGradient>
<linearGradient id="paint6_linear_4534_4974" x1="14.4135" y1="30.5086" x2="16.6578" y2="21.1463" gradientUnits="userSpaceOnUse">
<stop offset="0.0343909" stop-color="#C11884"/>
<stop offset="1" stop-color="#FF9A26"/>
</linearGradient>
<linearGradient id="paint7_linear_4534_4974" x1="5" y1="24.4955" x2="23.8382" y2="24.4955" gradientUnits="userSpaceOnUse">
<stop stop-color="#5855E4"/>
<stop offset="1" stop-color="#C11884"/>
</linearGradient>
<linearGradient id="paint8_linear_4534_4974" x1="14.4237" y1="39.3369" x2="21.2614" y2="16.9518" gradientUnits="userSpaceOnUse">
<stop offset="0.0343909" stop-color="#C11884"/>
<stop offset="1" stop-color="#FF9A26"/>
</linearGradient>
<clipPath id="clip0_4534_4974">
<rect width="34" height="33" fill="white" transform="translate(5 8)"/>
</clipPath>
</defs>
</svg>
