<svg width="49" height="49" viewBox="0 0 49 49" fill="none" xmlns="http://www.w3.org/2000/svg">
<path fill-rule="evenodd" clip-rule="evenodd" d="M24.449 10.3819C24.449 10.3819 21.1041 14.3878 13.8731 15.1851C13.5079 15.224 13.2276 15.5352 13.2276 15.9047V27.4623C13.2341 31.0988 15.3076 34.4111 18.5547 35.9863L24.6968 38.9616C24.7946 39.0134 24.8989 39.0329 25.0033 39.0329C25.1076 39.0329 25.2184 39.007 25.3097 38.9616L31.4388 36.0057C34.6859 34.4306 36.7594 31.1182 36.7659 27.4817V15.8658C36.7659 15.4963 36.4921 15.1851 36.1204 15.1462C28.8763 14.3878 25.5771 10.4143 25.5575 10.343C25.401 10.2069 25.2054 10.142 24.9968 10.1485C24.7881 10.1356 24.5794 10.2198 24.436 10.3754L24.449 10.3819ZM35.338 16.514V27.4234C35.3249 30.4959 33.5775 33.2962 30.8259 34.625L25.0098 37.4318L19.1676 34.638C16.4225 33.2962 14.6816 30.4959 14.6686 27.4234V16.514C18.5156 16.125 22.1343 14.5045 25.0098 11.8922C27.8722 14.5045 31.491 16.125 35.338 16.514Z" fill="url(#paint0_linear_701_178)"/>
<path fill-rule="evenodd" clip-rule="evenodd" d="M39.3349 12.5079C29.9391 11.5226 25.5966 6.30449 25.564 6.25911C25.2967 5.94797 24.8337 5.90908 24.5273 6.18133C24.5012 6.20726 24.4751 6.23318 24.449 6.25911C24.449 6.25911 20.1 11.5226 10.639 12.5079C10.2739 12.5468 10 12.8579 10 13.2339V28.2594C10.0326 32.8812 12.6603 37.0816 16.7681 39.0781L24.6968 42.922C24.8924 43.0193 25.1206 43.0193 25.3162 42.922L33.245 39.0781C37.3528 37.0751 39.9739 32.8747 40 28.2594V13.2468C40.0065 12.8644 39.7131 12.5403 39.3349 12.5143V12.5079ZM38.5395 13.8886V28.3048C38.5525 32.4015 36.2443 36.1352 32.6125 37.9243L24.9902 41.6126L17.368 37.9243C13.7492 36.1547 11.4475 32.4404 11.441 28.3696V13.9404C19.1806 12.9162 23.4253 9.3835 25.0033 7.78241C26.5681 9.37702 30.839 12.9098 38.5395 13.8886Z" fill="url(#paint1_linear_701_178)"/>
<path d="M24.9781 21.9259C23.4472 21.9202 22.1875 20.7005 22.0866 19.1351V18.9321C22.0866 17.2664 23.4051 15.9382 25.0032 15.9382C26.6014 15.9382 27.9199 17.2664 27.9199 18.9321C27.9199 20.5977 26.6014 21.9259 25.0032 21.9259H24.9781ZM24.9967 21.4739C26.3856 21.4739 27.4919 20.3252 27.4919 18.9321C27.4919 17.539 26.3856 16.3902 24.9967 16.3902C23.6078 16.3902 22.5015 17.539 22.5015 18.9321C22.5015 20.3252 23.6078 21.4739 24.9967 21.4739Z" fill="url(#paint2_linear_701_178)" stroke="url(#paint3_linear_701_178)"/>
<path d="M30.7455 26.269H30.6984M29.1762 31.4889H28.6762V30.9889V27.5923C28.6762 27.4761 28.5835 27.3728 28.4526 27.3665C28.3358 27.3725 28.2417 27.4683 28.2417 27.5923V30.9889V31.4889H27.7417M22.2907 31.4889H21.7907V30.9889V27.5923V27.5594L21.795 27.5269C21.8114 27.4031 21.7214 27.2871 21.6001 27.2713C21.4828 27.256 21.3729 27.3336 21.353 27.4623C21.3506 27.4901 21.3509 27.5134 21.3538 27.5422L21.3563 27.5672V27.5923V30.9889V31.4889H20.8563M18.8519 31.7007L18.8525 31.6884V31.676V26.769C18.8525 24.8581 20.3919 23.308 22.2915 23.302H27.6953C29.5976 23.308 31.1474 24.8543 31.1474 26.769V31.7019C31.1474 31.8278 31.0451 31.9279 30.9236 31.9279H19.0697H19.0686H19.0675H19.0664H19.0654H19.0643H19.0633H19.0622H19.0612H19.0601H19.0591H19.058H19.057H19.0559H19.0549H19.0538H19.0528H19.0517H19.0507H19.0496H19.0486H19.0475H19.0465C18.9331 31.9179 18.8459 31.8214 18.8519 31.7007Z" stroke="url(#paint4_linear_701_178)"/>
<defs>
<linearGradient id="paint0_linear_701_178" x1="13.2276" y1="24.5907" x2="36.7725" y2="24.5907" gradientUnits="userSpaceOnUse">
<stop stop-color="#5855E4"/>
<stop offset="1" stop-color="#C11884"/>
</linearGradient>
<linearGradient id="paint1_linear_701_178" x1="10" y1="24.4998" x2="40" y2="24.4998" gradientUnits="userSpaceOnUse">
<stop stop-color="#5855E4"/>
<stop offset="1" stop-color="#C11884"/>
</linearGradient>
<linearGradient id="paint2_linear_701_178" x1="21.5801" y1="18.9321" x2="28.4199" y2="18.9321" gradientUnits="userSpaceOnUse">
<stop stop-color="#5855E4"/>
<stop offset="1" stop-color="#C11884"/>
</linearGradient>
<linearGradient id="paint3_linear_701_178" x1="25" y1="24.3803" x2="27.5322" y2="16.1775" gradientUnits="userSpaceOnUse">
<stop offset="0.0343909" stop-color="#C11884"/>
<stop offset="1" stop-color="#FF9A26"/>
</linearGradient>
<linearGradient id="paint4_linear_701_178" x1="24.9996" y1="35.1202" x2="27.5835" y2="23.3088" gradientUnits="userSpaceOnUse">
<stop offset="0.0343909" stop-color="#C11884"/>
<stop offset="1" stop-color="#FF9A26"/>
</linearGradient>
</defs>
</svg>
